<?xml version="1.0" encoding="UTF-8"?>
<svg xmlns="http://www.w3.org/2000/svg" xmlns:xlink="http://www.w3.org/1999/xlink" version="1.2"
     width="5.6234mm" height="5.6234mm"
     viewBox="0.0000 -0.0000 3.2000 3.2000">
<g fill="currentColor" color="black">
<g transform="translate(1.6000, 1.6000)">
<path transform="scale(0.0040, -0.0040)" d="M21 -125l3 -51v-2c0 -13 -11 -22 -24 -22s-24 9 -24 22v2l3 51v2c-49 12 -79 66 -79 123c0 65 40 125 100 125s100 -60 100 -125c0 -57 -30 -111 -79 -123v-2zM48 0c0 45 -9 95 -48 95s-47 -50 -47 -95s8 -95 47 -95s48 50 48 95z" fill="currentColor"/>
</g>
</g>
</svg>
